<?xml version="1.0" standalone="no"?>
<!DOCTYPE svg PUBLIC "-//W3C//DTD SVG 20010904//EN"
 "http://www.w3.org/TR/2001/REC-SVG-20010904/DTD/svg10.dtd">
<svg version="1.0" xmlns="http://www.w3.org/2000/svg"
 width="500.000000pt" height="500.000000pt" viewBox="0 0 500.000000 500.000000"
 preserveAspectRatio="xMidYMid meet">

<g transform="translate(0.000000,500.000000) scale(0.100000,-0.100000)"
fill="#000000" stroke="none">
<path d="M2320 3552 c-42 -4 -60 -18 -60 -43 0 -20 22 -33 73 -44 20 -4 27
-11 25 -23 -4 -24 -46 -27 -69 -6 -24 21 -29 17 -22 -18 3 -17 10 -25 16 -21
7 4 25 6 42 4 21 -1 37 5 49 18 25 28 8 53 -45 66 -49 12 -60 29 -29 45 17 9
25 8 39 -4 23 -21 31 -20 31 3 0 25 -6 27 -50 23z"/>
<path d="M2832 3490 c-31 -29 -33 -82 -4 -112 26 -26 64 -31 87 -13 19 15 19
16 -12 10 -47 -9 -73 9 -73 50 0 18 7 41 16 50 21 21 64 16 78 -10 6 -11 12
-22 14 -25 5 -7 22 23 22 39 0 7 -6 11 -14 8 -8 -3 -20 1 -26 9 -18 20 -63 17
-88 -6z"/>
<path d="M1993 3479 c-23 -7 -35 -17 -39 -35 -9 -35 9 -49 59 -49 35 0 42 -3
42 -20 0 -25 -48 -33 -72 -13 -15 12 -16 10 -9 -17 9 -35 17 -45 23 -27 3 6
15 12 28 12 35 0 69 32 61 58 -6 17 -16 22 -59 24 -44 3 -52 6 -52 23 0 24 39
33 62 14 13 -11 14 -10 11 11 -4 28 -13 31 -55 19z"/>
<path d="M3156 3386 c7 -19 -43 -104 -64 -108 -11 -3 1 -14 38 -36 40 -23 56
-28 62 -19 12 20 9 30 -8 23 -19 -7 -54 10 -54 27 0 27 22 36 46 20 13 -8 24
-11 24 -5 0 5 -10 16 -21 24 -19 12 -20 17 -10 36 11 21 13 21 41 7 21 -11 28
-20 23 -33 -6 -15 -5 -15 10 -3 9 7 17 16 17 20 0 6 -93 61 -104 61 -3 0 -3
-6 0 -14z"/>
<path d="M1691 3328 c-25 -18 -39 -34 -33 -36 20 -6 74 -92 68 -108 -8 -21 1
-18 56 17 39 25 46 34 37 45 -15 18 -30 18 -23 0 3 -7 -6 -20 -20 -30 -24 -15
-26 -15 -37 6 -10 18 -8 24 9 39 28 22 16 32 -13 13 -22 -14 -24 -14 -35 7
-11 19 -9 25 11 40 18 13 27 15 37 6 12 -9 14 -8 11 7 -6 29 -20 28 -68 -6z"/>
<path d="M3424 3201 c9 -13 -65 -93 -80 -87 -20 8 -17 -8 6 -29 19 -18 20 -17
20 2 0 10 14 32 31 49 l32 29 -7 -35 c-16 -83 -18 -110 -9 -110 5 0 29 20 53
45 24 25 51 45 59 45 11 0 10 5 -5 21 -17 19 -19 19 -25 2 -4 -10 -20 -31 -37
-46 l-30 -29 13 63 c14 67 11 89 -12 89 -8 0 -12 -4 -9 -9z"/>
<path d="M1467 3142 c-20 -22 -22 -33 -4 -26 7 2 27 -11 45 -29 l33 -34 -68
13 c-47 9 -72 9 -80 2 -17 -14 -16 -31 1 -25 15 6 100 -75 90 -86 -4 -4 -3 -7
3 -7 5 0 18 9 28 20 18 19 17 20 -2 20 -10 0 -32 14 -48 30 -32 33 -26 35 44
19 74 -17 81 -5 29 49 -25 26 -47 53 -50 60 -2 10 -8 9 -21 -6z"/>
<path d="M2406 2783 c-32 -197 -62 -361 -65 -365 -17 -20 -35 21 -57 128 -13
66 -26 130 -29 143 -5 21 -17 5 -77 -100 -38 -68 -73 -127 -77 -131 -3 -3 -23
-10 -43 -13 l-38 -7 0 101 0 101 -95 0 -95 0 0 -210 0 -210 95 0 95 0 0 85 0
85 60 0 59 0 38 65 c20 36 40 61 44 57 10 -11 41 -181 35 -191 -3 -5 0 -21 8
-37 7 -16 26 -94 42 -174 l28 -145 31 187 c18 104 35 191 38 195 6 6 118 5
124 -1 1 -1 15 -77 30 -169 15 -92 30 -163 34 -159 4 4 33 87 65 185 l59 177
30 0 c29 0 33 -4 55 -66 13 -37 24 -85 24 -108 1 -38 3 -41 31 -44 33 -4 105
14 105 27 0 4 -14 12 -31 17 -44 13 -66 49 -72 117 l-6 57 94 0 94 0 3 -77 3
-78 95 0 95 0 3 208 2 207 -100 0 -100 0 0 -116 0 -116 -27 6 c-16 3 -58 8
-95 12 -53 5 -69 10 -73 24 -3 11 -28 43 -56 72 -50 53 -50 53 -39 93 10 34
18 43 56 59 29 12 44 24 44 36 0 27 -19 34 -39 16 -10 -9 -23 -16 -29 -16 -14
0 -14 -2 -3 38 6 18 6 45 1 62 -5 17 -5 30 0 30 23 0 29 118 6 132 -17 12 -61
9 -74 -4 -7 -7 -12 -33 -12 -58 l0 -46 -57 -28 c-83 -40 -106 -60 -97 -88 3
-13 20 -39 35 -59 16 -21 29 -48 29 -60 0 -46 -15 -122 -25 -126 -6 -1 -31
122 -59 295 -27 163 -52 307 -55 320 -4 13 -32 -134 -65 -335z m224 -60 c0
-41 -13 -35 -24 10 -5 20 -3 27 9 27 11 0 15 -11 15 -37z m-139 -124 c10 -68
22 -136 25 -151 5 -26 3 -28 -25 -28 -16 0 -41 -4 -55 -10 -19 -7 -26 -6 -26
2 0 24 54 318 57 314 2 -2 13 -59 24 -127z m141 -239 c-16 -52 -32 -57 -32
-11 0 23 23 53 47 60 0 1 -6 -21 -15 -49z"/>
<path d="M3657 2939 c-20 -11 -14 -31 7 -23 7 3 16 -2 20 -11 4 -11 -8 -24
-41 -46 -26 -16 -53 -27 -60 -25 -16 6 -16 1 -3 -25 11 -20 32 -26 28 -8 -2 6
19 25 46 42 38 24 50 27 56 16 5 -7 5 -18 -1 -25 -6 -8 -6 -14 -1 -18 6 -3 15
1 21 8 13 15 4 38 -36 98 -15 21 -22 24 -36 17z"/>
<path d="M1222 2820 c-32 -58 -33 -59 -12 -70 19 -10 20 -9 15 13 -4 14 -2 28
3 31 14 9 102 -43 102 -60 0 -18 16 -10 30 16 8 15 7 19 -7 17 -10 0 -39 12
-65 27 -49 29 -55 52 -15 58 22 3 22 3 1 15 -18 11 -23 6 -52 -47z"/>
<path d="M1768 2598 c-3 -42 -4 -43 -40 -46 l-38 -3 0 -120 0 -119 40 0 40 0
0 -45 c0 -33 4 -45 15 -45 13 0 15 30 15 210 0 176 -2 210 -14 210 -10 0 -16
-14 -18 -42z"/>
<path d="M3262 2433 c3 -189 5 -208 21 -211 14 -3 17 4 17 42 0 46 0 46 35 46
l35 0 0 119 0 120 -32 3 c-31 3 -33 6 -36 46 -3 34 -7 42 -23 42 -19 0 -19 -7
-17 -207z"/>
<path d="M3824 2631 c8 -12 -90 -45 -109 -37 -19 7 -19 -9 1 -66 12 -37 19
-45 35 -41 23 6 26 23 4 23 -9 0 -20 12 -26 26 -11 30 -12 29 18 38 19 6 25 2
33 -18 13 -35 23 -33 15 3 -5 24 -2 30 16 36 27 9 41 -10 35 -47 -4 -22 -2
-26 10 -21 11 4 14 14 11 32 -9 44 -26 81 -37 81 -6 0 -9 -4 -6 -9z"/>
<path d="M1106 2554 c-11 -28 -7 -44 9 -37 22 8 106 -17 112 -33 8 -22 23 -6
23 24 0 17 -3 22 -8 14 -7 -9 -19 -9 -58 4 -27 9 -54 23 -60 31 -10 11 -13 11
-18 -3z"/>
<path d="M3908 2319 c-3 -10 -24 -14 -71 -14 -70 0 -80 -9 -57 -45 8 -13 10
-12 10 3 0 11 8 17 25 17 34 0 32 -24 -5 -52 -16 -12 -30 -28 -30 -35 0 -18 5
-17 36 12 23 21 28 22 41 10 33 -33 73 -4 73 53 0 42 -14 74 -22 51z m2 -59
c0 -38 -27 -52 -46 -25 -19 26 -17 43 4 48 36 10 42 7 42 -23z"/>
<path d="M1046 2279 c-14 -72 -13 -74 59 -74 44 0 68 -4 74 -13 6 -10 10 -6
14 15 3 15 1 32 -4 38 -6 5 -9 3 -9 -8 0 -9 -4 -17 -9 -17 -25 0 -41 14 -41
36 0 13 -4 24 -10 24 -5 0 -10 -11 -10 -25 0 -20 -5 -25 -25 -25 -21 0 -25 5
-25 30 0 20 5 30 15 30 8 0 15 5 15 10 0 6 -8 10 -19 10 -13 0 -20 -10 -25
-31z"/>
<path d="M1180 1670 l0 -170 35 0 35 0 0 64 c0 63 1 65 28 68 21 2 28 9 30 31
3 24 0 27 -27 27 -30 0 -31 1 -31 45 l0 45 41 0 c38 0 40 1 37 28 -3 26 -5 27
-75 30 l-73 3 0 -171z"/>
<path d="M1377 1834 c-4 -4 -7 -18 -7 -31 0 -16 6 -23 20 -23 19 0 20 -7 20
-110 0 -103 -1 -110 -20 -110 -16 0 -20 -7 -20 -30 l0 -30 75 0 c74 0 75 0 75
26 0 17 -6 28 -20 31 -18 5 -20 14 -20 114 0 103 1 109 21 109 16 0 20 5 17
28 -3 26 -5 27 -68 30 -36 2 -69 0 -73 -4z"/>
<path d="M1567 1834 c-4 -4 -7 -18 -7 -31 0 -18 5 -23 25 -23 l25 0 0 -140 0
-140 35 0 34 0 3 138 3 137 28 3 c24 3 28 7 25 30 -3 27 -4 27 -83 30 -45 1
-84 0 -88 -4z"/>
<path d="M1790 1670 l0 -170 25 0 c24 0 25 2 25 67 0 77 10 74 34 -9 15 -53
19 -58 45 -58 17 0 31 6 35 16 8 20 8 288 0 308 -3 9 -17 16 -30 16 -22 0 -23
-4 -26 -72 l-3 -73 -19 60 c-22 73 -31 85 -62 85 l-24 0 0 -170z"/>
<path d="M2027 1833 c-4 -3 -7 -80 -7 -170 l0 -163 75 0 75 0 0 30 c0 28 -2
30 -40 30 -40 0 -40 0 -40 39 0 36 3 40 28 43 21 2 28 9 30 31 3 24 0 27 -27
27 -29 0 -31 2 -31 40 l0 40 40 0 c38 0 40 2 40 30 l0 30 -68 0 c-38 0 -72 -3
-75 -7z"/>
<path d="M2249 1821 c-36 -29 -33 -96 6 -145 67 -84 77 -109 49 -120 -11 -4
-18 3 -26 25 -15 42 -52 38 -56 -8 -5 -46 26 -73 82 -73 37 0 48 5 66 28 29
36 22 90 -17 138 -37 46 -63 95 -57 106 10 16 34 8 34 -11 0 -20 32 -37 50
-26 18 11 10 56 -15 80 -30 31 -83 33 -116 6z"/>
<path d="M2465 1815 c-43 -42 -33 -96 31 -168 32 -35 44 -79 26 -91 -12 -7
-29 7 -33 29 -3 14 -12 20 -29 20 -22 0 -25 -4 -22 -35 4 -51 26 -70 83 -70
39 0 51 4 68 26 35 44 22 95 -43 173 -38 46 -43 73 -13 79 11 2 17 -3 17 -17
0 -25 14 -34 41 -26 18 6 20 12 15 39 -13 65 -94 89 -141 41z"/>
<path d="M2775 1828 c-3 -7 -4 -83 -3 -168 l3 -155 35 0 c34 0 35 1 38 43 3
36 6 42 26 42 13 0 34 9 47 19 22 17 24 27 24 100 0 103 -14 120 -103 128 -48
5 -63 3 -67 -9z m95 -112 c0 -36 -4 -68 -10 -71 -6 -4 -10 20 -10 64 0 41 4
71 10 71 6 0 10 -28 10 -64z"/>
<path d="M3036 1819 c-26 -20 -26 -22 -26 -150 0 -153 8 -169 85 -169 77 0 85
16 85 169 0 128 0 130 -26 150 -15 12 -41 21 -59 21 -18 0 -44 -9 -59 -21z
m72 -151 c-2 -67 -7 -113 -13 -113 -6 0 -11 46 -13 113 -2 96 0 112 13 112 13
0 15 -16 13 -112z"/>
<path d="M3247 1834 c-4 -4 -7 -18 -7 -31 0 -16 6 -23 20 -23 19 0 20 -7 20
-110 0 -103 -1 -110 -20 -110 -16 0 -20 -7 -20 -30 l0 -30 75 0 c74 0 75 0 75
26 0 17 -6 28 -20 31 -18 5 -20 14 -20 114 0 103 1 109 21 109 16 0 20 5 17
28 -3 26 -5 27 -68 30 -36 2 -69 0 -73 -4z"/>
<path d="M3447 1834 c-4 -4 -7 -81 -7 -171 l0 -163 30 0 30 0 1 68 1 67 22
-65 c21 -60 25 -65 55 -68 l31 -3 -2 168 -3 168 -25 0 c-24 0 -25 -3 -28 -70
l-4 -70 -22 70 c-19 60 -25 70 -47 73 -13 2 -28 0 -32 -4z"/>
<path d="M3667 1834 c-4 -4 -7 -18 -7 -31 0 -18 5 -23 25 -23 l25 0 0 -140 0
-140 35 0 34 0 3 138 3 137 28 3 c24 3 28 7 25 30 -3 27 -4 27 -83 30 -45 1
-84 0 -88 -4z"/>
</g>
</svg>
